<!DOCTYPE svg PUBLIC "-//W3C//DTD SVG 1.1//EN" "http://www.w3.org/Graphics/SVG/1.1/DTD/svg11.dtd">
<!-- Uploaded to: SVG Repo, www.svgrepo.com, Transformed by: SVG Repo Mixer Tools -->
<svg version="1.1" id="Uploaded to svgrepo.com" xmlns="http://www.w3.org/2000/svg" xmlns:xlink="http://www.w3.org/1999/xlink" width="180px" height="180px" viewBox="-3.2 -3.2 38.40 38.40" xml:space="preserve" fill="7497b8" stroke="7497b8" stroke-width="0.00032" transform="matrix(1, 0, 0, 1, 0, 0)rotate(0)">
<g id="SVGRepo_bgCarrier" stroke-width="0" transform="translate(0,0), scale(1)">
<rect x="-3.2" y="-3.2" width="38.40" height="38.40" rx="0" fill="#7497b8" strokewidth="0"/>
</g>
<g id="SVGRepo_tracerCarrier" stroke-linecap="round" stroke-linejoin="round" stroke="#CCCCCC" stroke-width="0.064"> <style type="text/css"> .stone_een{fill:#1b568d;} </style> <path class="stone_een" d="M2,25c0,1.657,1.343,3,3,3h22c1.657,0,3-1.343,3-3V11H2V25z M5,14c0-0.552,0.448-1,1-1h20 c0.552,0,1,0.448,1,1v1c0,0.552-0.448,1-1,1H6c-0.552,0-1-0.448-1-1V14z M5.5,18h14c0.276,0,0.5,0.224,0.5,0.5S19.776,19,19.5,19 h-14C5.224,19,5,18.776,5,18.5S5.224,18,5.5,18z M5.5,20h11c0.276,0,0.5,0.224,0.5,0.5S16.776,21,16.5,21h-11 C5.224,21,5,20.776,5,20.5S5.224,20,5.5,20z M5.5,22h16c0.276,0,0.5,0.224,0.5,0.5S21.776,23,21.5,23h-16C5.224,23,5,22.776,5,22.5 S5.224,22,5.5,22z M27,4H5C3.343,4,2,5.343,2,7v3h28V7C30,5.343,28.657,4,27,4z M5,8C4.448,8,4,7.552,4,7c0-0.552,0.448-1,1-1 s1,0.448,1,1C6,7.552,5.552,8,5,8z M8,8C7.448,8,7,7.552,7,7c0-0.552,0.448-1,1-1s1,0.448,1,1C9,7.552,8.552,8,8,8z M11,8 c-0.552,0-1-0.448-1-1c0-0.552,0.448-1,1-1s1,0.448,1,1C12,7.552,11.552,8,11,8z M26,15H6v-1h20V15z"/> </g>
<g id="SVGRepo_iconCarrier"> <style type="text/css"> .stone_een{fill:#1b568d;} </style> <path class="stone_een" d="M2,25c0,1.657,1.343,3,3,3h22c1.657,0,3-1.343,3-3V11H2V25z M5,14c0-0.552,0.448-1,1-1h20 c0.552,0,1,0.448,1,1v1c0,0.552-0.448,1-1,1H6c-0.552,0-1-0.448-1-1V14z M5.5,18h14c0.276,0,0.5,0.224,0.5,0.5S19.776,19,19.5,19 h-14C5.224,19,5,18.776,5,18.5S5.224,18,5.5,18z M5.5,20h11c0.276,0,0.5,0.224,0.5,0.5S16.776,21,16.5,21h-11 C5.224,21,5,20.776,5,20.5S5.224,20,5.5,20z M5.5,22h16c0.276,0,0.5,0.224,0.5,0.5S21.776,23,21.5,23h-16C5.224,23,5,22.776,5,22.5 S5.224,22,5.5,22z M27,4H5C3.343,4,2,5.343,2,7v3h28V7C30,5.343,28.657,4,27,4z M5,8C4.448,8,4,7.552,4,7c0-0.552,0.448-1,1-1 s1,0.448,1,1C6,7.552,5.552,8,5,8z M8,8C7.448,8,7,7.552,7,7c0-0.552,0.448-1,1-1s1,0.448,1,1C9,7.552,8.552,8,8,8z M11,8 c-0.552,0-1-0.448-1-1c0-0.552,0.448-1,1-1s1,0.448,1,1C12,7.552,11.552,8,11,8z M26,15H6v-1h20V15z"/> </g>
</svg>